<?xml version="1.0" standalone="no"?><!DOCTYPE svg PUBLIC "-//W3C//DTD SVG 1.1//EN" "http://www.w3.org/Graphics/SVG/1.1/DTD/svg11.dtd"><svg class="icon" width="80px" height="80.00px" viewBox="0 0 1024 1024" version="1.1" xmlns="http://www.w3.org/2000/svg"><path d="M819.2 128H204.8C148.48 128 102.4 174.08 102.4 230.4v614.4c0 56.32 46.08 102.4 102.4 102.4h614.4c56.32 0 102.4-46.08 102.4-102.4V230.4c0-56.32-46.08-102.4-102.4-102.4z m51.2 716.8c0 28.16-23.04 51.2-51.2 51.2H204.8c-28.16 0-51.2-23.04-51.2-51.2V230.4c0-28.16 23.04-51.2 51.2-51.2h614.4c28.16 0 51.2 23.04 51.2 51.2v614.4z m-204.8-332.8h-128v-128c0-15.36-10.24-25.6-25.6-25.6s-25.6 10.24-25.6 25.6v128h-128c-15.36 0-25.6 10.24-25.6 25.6s10.24 25.6 25.6 25.6h128v128c0 15.36 10.24 25.6 25.6 25.6s25.6-10.24 25.6-25.6v-128h128c15.36 0 25.6-10.24 25.6-25.6 0-12.8-10.24-25.6-25.6-25.6z" fill="#02C261" /></svg>