<?xml version="1.0" standalone="no"?><!DOCTYPE svg PUBLIC "-//W3C//DTD SVG 1.1//EN" "http://www.w3.org/Graphics/SVG/1.1/DTD/svg11.dtd"><svg class="icon" width="200px" height="200.00px" viewBox="0 0 1024 1024" version="1.1" xmlns="http://www.w3.org/2000/svg"><path d="M512 65C265.5 65 65 265.5 65 512s200.5 447 447 447 447-200.5 447-447S758.5 65 512 65z m0 815.1C309 880.1 143.9 715 143.9 512c0-203 165.1-368.1 368.1-368.1 203 0 368.1 165.1 368.1 368.1 0 203-165.1 368.1-368.1 368.1z" fill="#000000" /><path d="M404.5 409.3v68.1h-5.6c-4.2-17.8-12.2-31.4-23.8-40.8s-24.7-14.2-39.4-14.2c-12.3 0-23.5 3.5-33.7 10.6-10.2 7-17.7 16.3-22.4 27.7-6.1 14.6-9.1 30.8-9.1 48.7 0 17.6 2.2 33.6 6.7 48 4.4 14.4 11.4 25.4 20.9 32.7 9.5 7.4 21.7 11.1 36.8 11.1 12.4 0 23.7-2.7 34-8.1 10.3-5.4 21.1-14.7 32.5-28V582c-11 11.5-22.5 19.8-34.4 25-11.9 5.2-25.9 7.7-41.8 7.7-21 0-39.6-4.2-55.8-12.6-16.3-8.4-28.8-20.5-37.7-36.2-8.8-15.7-13.3-32.5-13.3-50.3 0-18.7 4.9-36.5 14.7-53.3 9.8-16.8 23-29.8 39.7-39.1s34.4-13.9 53.1-13.9c13.8 0 28.4 3 43.7 9 8.9 3.5 14.5 5.2 16.9 5.2 3.1 0 5.8-1.1 8-3.4 2.3-2.3 3.7-5.9 4.4-10.8h5.6zM501.6 425.1v80h3.9c12.5 0 21.5-3.9 27.1-11.7 5.6-7.8 9.2-19.4 10.7-34.6h5.5v102.8h-5.5c-1.2-11.2-3.6-20.4-7.3-27.5-3.7-7.1-8-12-13-14.4-4.9-2.5-12.1-3.7-21.4-3.7v55.3c0 10.8 0.5 17.4 1.4 19.8 0.9 2.4 2.6 4.4 5.1 5.9 2.5 1.5 6.6 2.3 12.2 2.3H532c18.3 0 33-4.2 44.1-12.7 11.1-8.5 19-21.4 23.8-38.8h5.4l-8.8 62.4H426.7v-5.4h6.5c5.7 0 10.3-1 13.8-3 2.5-1.3 4.4-3.7 5.8-7 1.1-2.3 1.6-8.4 1.6-18.3V447.4c0-8.9-0.2-14.3-0.7-16.4-1-3.4-2.8-6-5.4-7.8-3.7-2.7-8.7-4.1-15.1-4.1h-6.5v-5.4h164.4v58.1h-5.5c-2.8-14.2-6.7-24.4-11.8-30.6-5.1-6.2-12.2-10.7-21.5-13.6-5.4-1.7-15.5-2.6-30.4-2.6h-20.3zM805.8 413.8V467h-5.2c-3.1-12.3-6.5-21.1-10.3-26.4-3.8-5.4-8.9-9.6-15.5-12.8-3.7-1.7-10.1-2.6-19.3-2.6h-14.6v151.5c0 10 0.6 16.3 1.7 18.8s3.3 4.7 6.5 6.6c3.2 1.9 7.7 2.8 13.3 2.8h6.5v5.4H666v-5.4h6.5c5.7 0 10.3-1 13.8-3 2.5-1.3 4.5-3.7 5.9-7 1.1-2.3 1.6-8.4 1.6-18.3V425.1h-14.2c-13.2 0-22.8 2.8-28.8 8.4-8.4 7.8-13.7 19-15.9 33.5h-5.5v-53.2h176.4z" fill="#000000" /></svg>