<?xml version="1.0" standalone="no"?><!DOCTYPE svg PUBLIC "-//W3C//DTD SVG 1.1//EN" "http://www.w3.org/Graphics/SVG/1.1/DTD/svg11.dtd"><svg class="icon" width="200px" height="200.00px" viewBox="0 0 1024 1024" version="1.1" xmlns="http://www.w3.org/2000/svg"><path d="M509.9 316.4c-107.7 0-195.3 87.6-195.3 195.3 0 107.7 87.6 195.3 195.3 195.3 107.7 0 195.3-87.6 195.3-195.3 0.1-107.7-87.6-195.3-195.3-195.3z m132.9 195.4c0 73.3-59.6 132.9-132.9 132.9C436.7 644.6 377 585 377 511.8c0-73.3 59.6-132.9 132.9-132.9 73.3 0 132.9 59.6 132.9 132.9z" fill="#2c2c2c" /><path d="M1006.7 413.7c-3.8-20.3-12.4-37.5-24.7-49.9-13.1-13.1-29.5-19.9-47.4-19.6h-3.8c-50.7 0-92-41.3-92-92 0-14.9 7.6-33.4 8.1-34.7 16.3-37 3.6-82.3-29.4-105.4l-1.1-0.8c-0.9-0.7-1.9-1.3-2.9-1.8L695 43.8c-0.8-0.5-1.7-0.9-2.7-1.3l-1.3-0.6c-11-4.8-22.9-7.2-35.4-7.2-25.2 0-50.1 10.3-66.7 27.5-17.9 18.5-53.8 44.2-74.5 44.2-20.6 0-57.4-26.6-74.9-45-16.7-17.6-41.8-28.1-67.3-28.1-12.3 0-24 2.3-34.7 6.9l-1.5 0.6c-1 0.4-1.8 0.8-2.6 1.3l-122.6 67.4c-1 0.5-1.9 1.1-2.9 1.8l-1.2 0.8c-33.3 23.1-46 68.5-29.7 105.5 2.7 6.2 8.1 22.7 8.1 34.7 0 50.7-41.3 92-92 92h-4.9c-35.2 0-63 27.3-71 69.5-1.1 5.7-10.5 56.8-10.5 98.7 0 42 9.4 93 10.5 98.7 8 42.2 35.9 69.5 71.1 69.5h4.8c50.7 0 92 41.3 92 92 0 12.7-5.8 29.3-8.1 34.7-16.3 37-3.6 82.3 29.5 105.5l1.2 0.9c0.8 0.5 1.6 1 2.5 1.5l116.4 65.1c0.9 0.5 1.7 0.9 2.6 1.3l1.3 0.6c11 4.8 22.9 7.3 35.4 7.3 25.7 0 50.9-10.8 67.5-28.8 15.5-16.9 54.2-47 76.1-47 21.1 0 58.7 28.4 76.6 47.9 16.6 18.4 42 29.3 68 29.3 12.3 0 23.9-2.4 34.8-7l1.2-0.5c0.9-0.4 1.9-0.9 2.8-1.4l120.5-66.6c0.9-0.5 1.7-1 2.6-1.6l1.3-0.9c33.2-23.1 45.9-68.4 29.6-105.4-2.3-5.4-8.2-21.9-8.2-34.7 0-50.7 41.3-92 92-92h4.8c35.2 0 63.1-27.3 71.1-69.4 0.4-2.3 10.5-55.8 10.5-98.7 0-42.3-9.4-93.4-10.4-99.1zM776.3 772.5c0 26.4 10.6 53.2 13 58.7l0.5 1.1c4.4 9.8 0.7 22.8-8 28.9L664 926.3c-2.9 1.2-6.2 1.8-9.8 1.8-8.4 0-16.8-3.4-21.8-8.9-9.5-10.4-26.7-26.3-46.5-39.9-27.6-18.9-53.3-28.5-76.3-28.5-22.1 0-47.1 9.1-74.3 27.1-20.6 13.7-38.2 29.6-47.8 40.1-4.8 5.3-13.3 8.7-21.5 8.7-3.7 0-7.2-0.7-10.2-2l-113.5-63.5c-8.8-6.2-12.3-19.2-8-29.1l0.1-0.2c1.4-3.2 13.3-31.7 13.3-59.6 0-85.2-69.3-154.5-154.5-154.5h-4.9c-1.4-0.2-7.1-5.3-9.7-18.6-0.4-2-9.4-50.3-9.4-87.1 0-37.2 9.3-86.6 9.4-87.1 2.6-13.6 8.3-18.5 9.7-18.6H93.2c85.2 0 154.5-69.3 154.5-154.5 0-28.3-12-56.6-13.4-59.8-4.3-9.8-0.7-22.7 8-28.9l119.9-65.9c3-1.3 6.4-1.9 10.1-1.9 8.4 0 17 3.4 22 8.7 9.4 9.8 26.3 24.8 45.7 37.6 27.1 17.8 52.1 26.8 74.4 26.8 22.1 0 46.9-8.8 73.8-26.3 19.3-12.5 36.2-27.3 45.6-37 4.9-5.1 13.5-8.4 21.8-8.4 3.8 0 7.2 0.6 10.2 1.9L781.6 163c8.8 6.2 12.4 19.2 8 29.1-1 2.2-13.4 31.3-13.4 59.8 0 85.2 69.3 154.5 154.5 154.5H935.6c1.1 0 7.1 4.8 9.7 18.7 0.1 0.5 9.4 49.8 9.4 87.1 0 36.7-9 85-9.4 87.1v0.1c-2.4 12.9-8.1 18.5-9.7 18.6h-4.8c-85.2 0.1-154.5 69.4-154.5 154.5z" fill="#2c2c2c" /></svg>