<?xml version="1.0" standalone="no"?><!DOCTYPE svg PUBLIC "-//W3C//DTD SVG 1.1//EN" "http://www.w3.org/Graphics/SVG/1.1/DTD/svg11.dtd"><svg class="icon" width="200px" height="200.00px" viewBox="0 0 1024 1024" version="1.1" xmlns="http://www.w3.org/2000/svg"><path d="M667.648 409.6c-28.672 0-49.152 4.096-69.632 16.384-20.48 12.288-32.768 32.768-36.864 57.344l4.096 4.096 36.864 4.096 4.096-4.096c4.096-12.288 12.288-24.576 20.48-32.768 8.192-8.192 24.576-8.192 40.96-8.192 36.864 0 57.344 16.384 57.344 53.248v8.192h-53.248c-36.864 0-61.44 8.192-81.92 20.48s-32.768 36.864-32.768 65.536c0 20.48 8.192 36.864 24.576 49.152 16.384 12.288 32.768 20.48 57.344 20.48 20.48 0 40.96-4.096 61.44-16.384 12.288-8.192 20.48-12.288 28.672-24.576v32.768l4.096 4.096h32.768l4.096-4.096v-151.552c0-28.672-8.192-49.152-20.48-65.536-20.48-16.384-45.056-28.672-81.92-28.672z m53.248 155.648c0 16.384-8.192 32.768-24.576 45.056-16.384 12.288-32.768 20.48-57.344 20.48-12.288 0-24.576-4.096-32.768-8.192-8.192-8.192-12.288-12.288-12.288-24.576 0-32.768 24.576-49.152 73.728-49.152H716.8v16.384z"  /><path d="M798.72 90.112H225.28C159.744 90.112 110.592 139.264 110.592 204.8v573.44c0 65.536 53.248 114.688 114.688 114.688h573.44c65.536 0 114.688-53.248 114.688-114.688V204.8c0-65.536-49.152-114.688-114.688-114.688zM847.872 778.24c0 24.576-20.48 49.152-49.152 49.152H225.28c-24.576 0-49.152-20.48-49.152-49.152V204.8c0-24.576 20.48-49.152 49.152-49.152h573.44c24.576 0 49.152 20.48 49.152 49.152v573.44z"  /><path d="M409.6 331.776h-40.96l-8.192 4.096-118.784 327.68 4.096 4.096h45.056l4.096-4.096 28.672-77.824h126.976l28.672 77.824 4.096 4.096h45.056l4.096-4.096-122.88-331.776zM339.968 532.48l45.056-126.976L430.08 532.48H339.968z"  /></svg>