<?xml version="1.0" standalone="no"?><!DOCTYPE svg PUBLIC "-//W3C//DTD SVG 1.1//EN" "http://www.w3.org/Graphics/SVG/1.1/DTD/svg11.dtd"><svg class="icon" width="200px" height="200.00px" viewBox="0 0 1024 1024" version="1.1" xmlns="http://www.w3.org/2000/svg"><path d="M951.955 774.45c-0.192-8.576-3.2-17.471-6.783-25.342-4.16-8.96-4.16-16.446 0-25.342 3.648-7.87 6.655-16.894 6.72-25.341 0.831-35.836 0.831-71.545 0-107.253-0.193-8.96-5.312-17.598-6.656-26.621-1.152-7.872-0.96-16.127 0.192-23.934 1.344-9.087 6.207-17.79 6.4-26.75 0.703-35.324 0.831-70.648 0-105.908-0.193-9.024-5.056-17.663-6.4-26.75-1.152-7.807-1.344-16.126-0.192-23.933 1.344-9.087 6.463-17.727 6.655-26.686 0.832-35.772 0.384-71.48 0.32-107.189 0-21.502-10.367-37.756-27.773-48.763-9.471-6.143-13.31-13.054-13.247-23.933 0.448-29.821 0.512-59.642 0-89.335-0.192-8.255-1.855-17.15-5.375-24.446C893.209 11.007 871.899 0 842.91 0.064 616.565 0.512 390.22 0.32 163.747 0.32c-5.439 0-11.07 0.128-16.574 0.576-21.63 1.792-39.932 10.943-54.97 26.557-18.238 18.942-20.67 42.556-20.67 67.513 0.32 141.234 0.064 282.532 0.064 423.83h0.192v214.441c0 74.489 0.832 148.913-0.32 223.402-0.512 39.1 32.253 68.6 68.729 67.32 59.514-2.047 119.156-0.575 178.734-0.511 155.248 0 310.624 0.128 465.808-0.192 9.92 0 20.798-1.472 29.501-5.823 23.934-12.031 37.564-31.55 35.645-59.514-0.832-12.223 3.903-17.087 16.318-15.999 9.215 0.768 18.622 0.32 28.03-0.192 31.42-1.6 57.53-28.477 57.85-60.026 0.383-35.772 0.64-71.608-0.129-107.253z m-43.003-523.404c-0.832 23.294 0 46.716-0.128 70.201-0.064 17.343-8.447 26.174-25.79 26.174-36.54 0-33.084 6.207-32.892-31.55V277.54c-0.064-18.238 0.32-36.604-0.192-54.843-0.32-11.199 3.2-15.806 15.294-15.998 37.884-0.576 45.307 3.392 43.708 44.347z m-58.938 153.2c-0.064-9.726 4.031-14.014 13.95-13.246 7.167 0.576 14.399 0.128 21.63 0.192 12.607 0.128 22.846 8.063 23.166 20.414 0.64 32.765 0.64 65.402 0.128 98.102-0.192 10.88-7.68 18.622-17.919 20.414-10.75 1.856-22.141 1.792-32.956 0.32-3.2-0.384-7.551-8.255-7.871-12.927-0.832-18.622-0.256-37.308-0.256-55.994h0.064c0.064-19.134 0.256-38.268 0.064-57.274z m-30.845 544.97c0 31.1-13.31 44.411-44.476 44.411l-628.032 0.064c-32.509 0-45.883-13.31-45.883-45.947V169.07c0-21.63 10.75-26.174 19.774-26.174 3.711 0 7.679 0.832 13.886 2.88 8.895 2.944 20.67 6.336 31.805 6.4 101.494 0.64 203.052 0.703 304.673 0.767H776.23c29.693 0 42.94 13.311 42.94 43.132v753.14z m0.512-817.261c-12.415-10.367-27.71-9.215-42.62-9.215-194.86 0.064-389.656 0.255-584.453-0.256-17.214 0-34.748-2.752-51.194-7.36-18.622-5.375-27.006-19.71-25.662-36.284 1.472-16.574 13.887-29.949 32.061-33.277 7.871-1.471 15.998-1.791 24.126-1.791 110.132-0.064 220.33 0 330.462 0 110.26-0.064 220.33-0.064 330.59-0.064 29.95 0 35.389 5.631 35.389 36.028 0 22.526 0.512 45.051-0.192 67.641-0.128 5.503-3.84 10.879-5.888 16.318-6.847-3.071-14.526-5.12-20.286-9.599-8.255-6.463-14.398-15.422-22.333-22.141z m89.399 738.74c-0.064 19.39-8.575 27.902-28.03 28.03-34.492 0.128-31.036 4.031-30.972-30.013v-39.42c0-19.134 0.064-38.14-0.064-57.274-0.064-9.664 4.031-14.143 13.886-13.44 5.056 0.385 10.111 0.129 15.295 0.129 22.653 0 29.885 6.975 30.013 29.309 0 27.517 0.128 55.162-0.128 82.68z m0.256-252.07c-0.704 23.23 0 46.651-0.192 70.009-0.192 16.958-9.087 26.173-25.854 26.173-37.884 0.128-33.148 4.48-33.148-31.548-0.064-12.735 0-25.47 0-38.205h-0.128c0-18.238 0.32-36.476-0.064-54.714-0.32-11.327 3.711-15.486 15.614-15.806 40.06-1.088 44.86 5.375 43.772 44.091z"  /><path d="M536.318 596.42c-1.664 4.99-2.496 12.094-2.496 21.437 0 10.687 0.704 17.47 2.176 20.606 1.343 3.072 4.16 4.608 8.255 4.608 3.967 0 6.463-1.216 7.679-3.648 1.152-2.432 1.728-8.831 1.728-19.134v-42.364c-9.983 7.487-15.807 13.567-17.342 18.494z"  /><path d="M776.23 179.438H470.915c-101.621-0.064-203.243-0.128-304.929-0.768-14.27-0.064-28.029-3.968-38.716-7.36v776.498c0 18.174 1.344 19.454 19.39 19.454l628.032-0.064c16.639 0 17.982-1.344 17.982-17.919V196.076c0-15.294-1.471-16.638-16.446-16.638zM401.994 675.835l-3.52-45.115h-23.357l-3.968 45.115h-67.513l33.34-250.982h94.391l37.244 250.982h-66.617z m214.314 0h-60.857v-18.302c-3.84 7.36-8.768 12.927-14.783 16.574-6.08 3.712-13.31 5.504-21.63 5.504-10.943 0-20.99-3.072-30.205-9.215-9.087-6.144-13.63-19.582-13.63-40.38v-16.958c0-15.359 2.367-25.918 7.231-31.485 4.864-5.568 16.894-12.03 36.092-19.518 20.606-8.063 31.55-13.567 33.021-16.318 1.472-2.816 2.176-8.448 2.176-17.087 0-10.687-0.832-17.726-2.368-20.99-1.664-3.263-4.224-4.927-8-4.927-4.223 0-6.91 1.408-7.998 4.16-1.088 2.751-1.536 9.79-1.536 21.31v21.501H475.14v-13.758c0-15.935 1.728-28.158 5.44-36.86 3.647-8.576 10.942-16.255 22.077-22.846 11.07-6.656 25.47-9.92 43.132-9.92 21.245 0 37.18 3.84 47.93 11.327 10.752 7.424 17.215 16.703 19.327 27.582 2.176 10.943 3.2 33.34 3.2 67.385v103.221z"  /><path d="M374.222 586.18h22.462c-3.328-28.349-6.528-63.545-9.92-105.333-6.655 48.06-10.75 83.256-12.542 105.333z"  /></svg>