<?xml version="1.0" standalone="no"?><!DOCTYPE svg PUBLIC "-//W3C//DTD SVG 1.1//EN" "http://www.w3.org/Graphics/SVG/1.1/DTD/svg11.dtd"><svg class="icon" width="200px" height="200.00px" viewBox="0 0 1024 1024" version="1.1" xmlns="http://www.w3.org/2000/svg"><path d="M512.1 960.1C264.6 960.1 64 759.5 64 512 64 264.6 264.6 63.9 512.1 63.9c247.5 0 448.1 200.6 448.1 448.1 0 247.5-200.6 448.1-448.1 448.1z m0-64c212.1 0 384.1-172 384.1-384.1 0-212.1-172-384.1-384.1-384.1C300 128 128 299.9 128 512c0 212.1 172 384.1 384.1 384.1z m103.1-428.4v7.2c10.5-13.9 22-24 34.4-30.5 12.5-6.5 26.8-9.7 43-9.7 15.7 0 29.8 3.4 42.2 10.3 12.4 6.9 21.6 16.6 27.8 29.1 3.9 7.3 6.5 15.1 7.7 23.6 1.2 8.5 1.8 19.2 1.8 32.4v111.2c0 12-2.7 21-8.2 27.1-5.4 6.1-13.2 9.4-21.3 9.2-8.3 0.3-16.2-3.2-21.7-9.4-5.5-6.3-8.3-15.2-8.3-26.9v-99.6c0-19.7-2.7-34.8-8.2-45.2-5.5-10.4-16.4-15.6-32.7-15.6-10.7 0-20.4 3.2-29.1 9.5-8.7 6.3-15.1 15-19.2 26.1-2.9 8.9-4.4 25.5-4.4 49.9v74.8c0 12.1-2.8 21.2-8.4 27.2-5.6 6-13.5 9.4-21.8 9.1-8.1 0.2-15.9-3.2-21.2-9.4-5.5-6.3-8.3-15.2-8.3-26.9V468.6c0-11.4 2.5-19.9 7.5-25.5 5-5.6 11.7-8.4 20.3-8.4 5.3 0 10 1.3 14.2 3.7 4.4 2.7 7.9 6.5 10.2 11.2 2.4 4.9 3.7 11 3.7 18.1z m-112.8-66.3H356v78.7h134.8c9.9 0 17.3 2.2 22.2 6.7 4.9 4.5 7.6 10.9 7.3 17.6 0.2 6.7-2.4 13.2-7.2 17.8-4.8 4.6-12.3 6.9-22.3 6.9H356v91.2h151.4c10.2 0 17.9 2.4 23.1 7.1 5.2 4.9 8.1 11.8 7.7 18.9 0 7.6-2.6 13.8-7.7 18.5-5.2 4.7-12.9 7.1-23.1 7.1H330.9c-14.1 0-24.3-3.1-30.5-9.4-6.2-6.3-9.3-16.4-9.3-30.4v-241c0-9.3 1.4-17 4.2-22.9 2.6-5.7 7.2-10.3 13-12.9 5.9-2.7 13.4-4 22.7-4h171.6c10.3 0 18 2.3 23 6.9 5 4.6 7.8 11.2 7.6 18.1 0.3 6.9-2.5 13.6-7.6 18.2s-12.8 6.9-23.2 6.9z m0 0" /></svg>