<?xml version="1.0" standalone="no"?><!DOCTYPE svg PUBLIC "-//W3C//DTD SVG 1.1//EN" "http://www.w3.org/Graphics/SVG/1.1/DTD/svg11.dtd"><svg class="icon" width="200px" height="200.00px" viewBox="0 0 1024 1024" version="1.1" xmlns="http://www.w3.org/2000/svg"><path d="M121.247681 421.552734c0 65.910645 20.852905 126.729004 55.884644 176.459961-10.542725-33.370606-16.22937-68.89502-16.22937-105.719238 0-195.339844 159.73584-353.670898 356.788452-353.670898 2.700195 0 5.321045 0.335938 7.997437 0.389648-33.265259-13.115723-69.286499-20.594727-107.121826-20.594727C254.364502 118.417481 121.247681 254.131348 121.247681 421.552734L121.247681 421.552734z"  /><path d="M987.755066 828.954101l-134.779785-134.960449c-9.795715-9.811523-20.674133-17.008301-32.16272-21.796875 41.225098-67.136719 65.012512-146.133301 65.012512-230.699219 0-243.849121-197.648499-441.497559-441.497315-441.497559-243.821167 0-441.497559 197.648438-441.497559 441.497559 0 243.84668 197.674439 441.497559 441.497559 441.497559 81.539917 0 157.897888-22.126465 223.445007-60.663086 5.09845 11.666992 12.658752 22.833496 22.86969 33.058594l134.805786 134.986328c44.640442 44.718262 117.197388 44.847168 162.018799 0.286133C1032.290161 946.074219 1032.421387 873.698242 987.755066 828.954101L987.755066 828.954101zM83.100464 441.497559c0-199.494629 161.734741-361.227051 361.227295-361.227051 199.520264 0 361.227173 161.732422 361.227173 361.227051 0 199.492676-161.706909 361.229004-361.227173 361.229004C244.835205 802.724609 83.100464 640.990234 83.100464 441.497559L83.100464 441.497559z"  /></svg>