<?xml version="1.0" standalone="no"?><!DOCTYPE svg PUBLIC "-//W3C//DTD SVG 1.1//EN" "http://www.w3.org/Graphics/SVG/1.1/DTD/svg11.dtd"><svg class="icon" width="200px" height="200.00px" viewBox="0 0 1024 1024" version="1.1" xmlns="http://www.w3.org/2000/svg"><path d="M948.402087 670.052174l44.343652-4.452174-40.069565-400.695652a22.26087 22.26087 0 0 0-22.171826-20.034783H845.913043v44.521739h64.467479l38.021565 380.66087zM22.26087 667.826087v311.652174a22.26087 22.26087 0 0 0 22.260869 22.260869h934.956522a22.26087 22.26087 0 0 0 22.260869-22.260869v-311.652174a22.26087 22.26087 0 0 0-22.260869-22.26087h-8.904348v22.26087h-13.356522v289.391304h-890.434782v-271.582608a22.26087 22.26087 0 0 0 8.815304-15.582609l38.021565-380.66087H178.086957v-44.521739H93.495652a22.26087 22.26087 0 0 0-22.171826 20.034783L32.946087 648.815304A22.26087 22.26087 0 0 0 22.26087 667.826087z m315.392 145.897739A22.26087 22.26087 0 0 0 356.173913 823.652174h314.412522a22.26087 22.26087 0 0 0 18.521043-9.928348L771.561739 690.086957H979.478261v-44.52174h-219.848348a22.26087 22.26087 0 0 0-18.521043 9.928348L658.69913 779.130435H368.105739l-82.454261-123.63687A22.26087 22.26087 0 0 0 267.130435 645.565217H44.521739v44.52174h210.67687l82.454261 123.636869z"  /><path d="M200.347826 66.782609v400.695652h623.304348v-400.695652h-623.304348zM178.086957 22.26087h667.826086a22.26087 22.26087 0 0 1 22.26087 22.260869v445.217391a22.26087 22.26087 0 0 1-22.26087 22.26087H178.086957a22.26087 22.26087 0 0 1-22.26087-22.26087V44.521739A22.26087 22.26087 0 0 1 178.086957 22.26087z"  /><path d="M578.782609 200.347826h133.565217a22.26087 22.26087 0 1 0 0-44.521739h-133.565217a22.26087 22.26087 0 1 0 0 44.521739zM578.782609 289.391304h133.565217a22.26087 22.26087 0 1 0 0-44.521739h-133.565217a22.26087 22.26087 0 1 0 0 44.521739zM578.782609 378.434783h133.565217a22.26087 22.26087 0 1 0 0-44.52174h-133.565217a22.26087 22.26087 0 1 0 0 44.52174zM512 489.73913a155.826087 155.826087 0 0 0-311.652174 0 22.26087 22.26087 0 1 0 44.521739 0 111.304348 111.304348 0 1 1 222.608696 0 22.26087 22.26087 0 1 0 44.521739 0z"  /><path d="M356.173913 333.913043a111.304348 111.304348 0 1 1 0-222.608695 111.304348 111.304348 0 0 1 0 222.608695z m0-44.521739a66.782609 66.782609 0 1 0 0-133.565217 66.782609 66.782609 0 0 0 0 133.565217zM222.608696 601.043478h578.782608a22.26087 22.26087 0 1 0 0-44.521739H222.608696a22.26087 22.26087 0 1 0 0 44.521739z"  /></svg>