<?xml version="1.0" standalone="no"?><!DOCTYPE svg PUBLIC "-//W3C//DTD SVG 1.1//EN" "http://www.w3.org/Graphics/SVG/1.1/DTD/svg11.dtd"><svg class="icon" width="200px" height="200.00px" viewBox="0 0 1024 1024" version="1.1" xmlns="http://www.w3.org/2000/svg"><path d="M834.220929 182.763802" fill="#ffffff" /><path d="M791.62495 976.635472 205.093449 976.635472c-58.598128 0-106.237765-46.951865-106.237765-104.678816L98.855684 118.434245c0-57.726951 47.639636-104.678816 106.191913-104.678816l502.669234 0c28.657144 0 55.571934 11.141898 75.700712 31.316527 19.670264 19.716115 30.491201 45.805579 30.44535 73.453992l0.183406 527.520709c0.917029 18.523978-0.229257 34.93879-3.576412 50.253168-5.364617 24.805624-16.277258 44.017373-32.37111 57.222585-14.305646 11.783818-33.425693 19.807818-56.764071 23.842744-17.698652 3.072046-37.002105 3.943223-57.314288 2.521829l-4.630994-0.366811L206.285586 779.520172c-0.96288 1.192137-2.063314 4.034926-2.063314 10.454126 0 7.473783 1.467246 9.582949 1.467246 9.582949l553.014105 0.687771c12.654995 0 22.925715 10.27072 22.925715 22.925715s-10.27072 22.925715-22.925715 22.925715L206.331438 846.096449c-7.565486 0-16.506515-2.659383-23.934447-7.015269-16.002149-9.6288-23.980298-26.089464-23.980298-49.106882s7.978149-39.478082 23.751041-49.061031c7.519635-4.539292 16.506515-7.244526 24.163704-7.244526l454.433529 0 0 3.2096 0.32096-3.255452 6.235795 0.550217c16.323109 1.100434 32.325259 0.458514 46.264093-1.971612 15.451932-2.659383 27.373304-7.427932 35.489007-14.122241 8.069852-6.602606 13.480321-16.873326 16.644069-31.499933 1.329691-6.144092 2.200869-12.471589 2.613532-19.303452L768.011463 667.27587 768.011463 118.434245c0-15.406081-6.006537-29.940984-17.056732-40.991179C739.446022 65.934357 724.085792 59.60686 707.716832 59.60686L205.047598 59.60686c-33.288139 0-60.340483 26.410424-60.340483 58.827385l0 753.522411c0 32.462813 27.098195 58.827385 60.386334 58.827385l586.5315 0c33.33399 0 60.386334-26.364573 60.386334-58.781534L852.011284 167.403573c0-12.654995 10.27072-22.925715 22.925715-22.925715s22.925715 10.27072 22.925715 22.925715l0 704.553083C897.908566 929.683607 850.223078 976.635472 791.62495 976.635472z" fill="#ffffff" /></svg>