<?xml version="1.0" standalone="no"?><!DOCTYPE svg PUBLIC "-//W3C//DTD SVG 1.1//EN" "http://www.w3.org/Graphics/SVG/1.1/DTD/svg11.dtd"><svg class="icon" width="200px" height="200.00px" viewBox="0 0 1024 1024" version="1.1" xmlns="http://www.w3.org/2000/svg"><path d="M515 64.2c-246.9 0-447 200.1-447 447s200.1 447 447 447 447-200.1 447-447-200.1-447-447-447zM386 543.5c-8.7 37.9-26.1 68.3-52.3 91.1-26.6 22.9-57.8 34.4-93.6 34.4-33.9 0-59.3-8.9-76.2-26.8-16.9-17.9-25.4-44.7-25.4-80.5 0-32.6 8-66 24.1-100.3 16-34.2 36.7-62 61.9-83.3 17.7-14.9 36.7-22.3 56.9-22.3 12.3 0 29.2 4.5 50.4 13.4 25.2 10.6 37.8 21.8 37.8 33.8 0 6.9-2.6 13-7.8 18.4-5.2 5.4-11.6 8.1-19.3 8.1-3.8 0-12.3-3.6-25.3-10.8-13.1-7.2-25-10.8-35.8-10.8-11.5 0-26.9 12.4-46.4 37.1-28.4 35.9-42.6 74.8-42.6 116.7 0 21.3 3.1 35.7 9.4 43.4 6.6 8 19.4 12 38.4 12 19.5 0 36.6-5.5 51.4-16.6 15.7-11.7 27.2-28.8 34.8-51.2-29.5 2.3-55.3 8.3-77.2 18.1-3.9 1.8-7.9 2.7-11.8 2.7-7.9 0-14.5-2.9-19.7-8.8-4.7-5.2-7.1-11.1-7.1-17.8 0-19.5 23-33.1 69.1-40.9 26-4.3 56.3-6.5 90.9-6.5 7.6 0 14 2.5 19.2 7.4 5.2 5 7.7 11.1 7.7 18.3 0 9.4-3.8 16.6-11.5 21.7z m245.1 106.9c-5.3 5.2-11.7 7.7-19.1 7.7-6.9 0-13.2-2.7-18.9-8-38.6-36.2-81-61.2-127.2-75.2 1.4 37.1 2.1 57.6 2.1 61.7 0 7.3-2.5 13.4-7.6 18.4-5.1 5-11.5 7.5-19.1 7.5-7.6 0-14-2.5-19.1-7.5-5.1-5-7.6-11.2-7.6-18.4 0-9.5 0.1-23.8 0.4-42.9 0.3-19 0.4-33.3 0.4-42.9l0.4-154.1c0-8.3 2.5-15.8 7.4-22.5 6.5-8.7 15.5-12.5 26.9-11.6 30.9 2.3 46.8 3.5 47.6 3.6 17.8 2.2 33 6.4 45.5 12.8 54.4 27.4 81.5 61.3 81.5 101.8 0 16.7-5.7 31.4-17.1 44.2-11.4 12.8-28.5 23.6-51.3 32.4 33.7 18.8 59.1 38.1 76.2 57.7 4.5 5.1 6.7 10.8 6.7 17-0.1 7-2.8 13.1-8.1 18.3z m228-239.4c-2.5 0-5.2-0.4-8-1.1-20.6-5.6-40.7-8.4-60.2-8.4-9.5 0-19.8 0.8-30.7 2.3-11 1.5-22.6 3.8-34.9 6.9 0 16.9-0.6 42.1-1.7 75.4 7.1-0.5 32-2.9 74.7-7.1 24.3-2.4 39.7-3.6 46.2-3.6 7.5 0 13.9 2.4 19.3 7.2 5.3 4.8 8 11.1 8 19 0 15.2-8.1 23.7-24.3 25.8-10.2 0.8-25.4 2-45.6 3.8-18.1 2-45.3 4.5-81.7 7.4-0.9 16.2-1.3 29.2-1.3 39.2 0 25 1.5 39.2 4.4 42.6 1.4 1.7 9.4 2.5 24.1 2.5 7.9 0 19.8-0.2 35.7-0.6 15.9-0.4 27.8-0.6 35.7-0.6 2.5 0 6.3-0.4 11.3-1.1 5-0.8 8.7-1.1 11.1-1.1 7.4 0 13.7 2.1 18.9 6.3 6 4.7 9 11.3 9 19.9 0 14.3-7.4 22.8-22.3 25.6-12.7 2.4-39.2 3.6-79.3 3.6-41.5 0-68.6-5.6-81.2-16.8-13.9-12.3-20.8-39.1-20.8-80.2 0-17.1 1.2-42.7 3.7-76.9s3.7-59.7 3.7-76.7c0-4.5-0.6-11-1.9-19.8-1.3-8.7-1.9-15.3-1.9-19.8 0-19.4 8.9-29 26.7-29 5.6 0 10.8 1.6 15.5 4.8 14.8-3.7 28.8-6.5 42.1-8.3 13.3-1.8 25.9-2.8 37.7-2.8 32.1 0 57.7 3.7 77 11.1 11.7 4.5 17.6 12.5 17.6 24.3 0 6.6-2.3 12.5-6.9 17.6-5.3 5.6-11.8 8.6-19.7 8.6z" fill="#ffffff" /><path d="M570.9 480.7c0-14.3-9-28-27.1-41.3-17.2-12.5-35.3-19.7-54.2-21.6-1-0.1-8.5-0.6-22.3-1.5v101.4c3.2 0.1 6 0.2 8.4 0.2 31.2 0 54.3-3.9 69.3-11.7 6.5-3.3 12.4-7.7 17.9-13.2 5.3-5.4 8-9.5 8-12.3z" fill="#ffffff" /></svg>