<?xml version="1.0" standalone="no"?><!DOCTYPE svg PUBLIC "-//W3C//DTD SVG 1.1//EN" "http://www.w3.org/Graphics/SVG/1.1/DTD/svg11.dtd"><svg class="icon" width="200px" height="166.64px" viewBox="0 0 1229 1024" version="1.1" xmlns="http://www.w3.org/2000/svg"><path d="M678.53814316 511.23061371C748.18305207 478.0033226 796.57018852 406.65742111 796.57018852 323.92522048 796.57018852 209.61342048 704.38674164 116.6057415 591.09461022 116.6057415S385.62289429 209.61342048 385.62289429 323.92522048c0 82.73065567 48.41417313 154.07810212 118.02818298 187.30539323-173.34056854 43.17369461-253.50042343 214.25399781-253.50042343 374.96767044 0 11.50217056 9.24036025 20.76107025 20.5810833 20.76107025 11.40174865 0 20.60966492-9.29057122 20.60966492-20.76107025 0-165.67296982 93.77783775-344.01532173 299.72848891-344.01532173 205.94524384 0 299.72385407 178.34235191 299.72385407 344.01532173 0 11.50217056 9.23881531 20.76107025 20.60811997 20.76107025 11.37162209 0 20.5810833-9.29057122 20.5810833-20.76107025 0.05716324-160.71444512-80.0717926-331.79552078-253.44403268-374.96767045M426.81132507 323.92522048c0-91.39552117 73.67105483-165.76025963 164.28251267-165.76025962 90.6091404 0 164.28637505 74.36473846 164.28637505 165.76025962 0 91.36539459-73.67568969 165.70464134-164.28637505 165.70464135-90.6122303 0-164.28251267-74.33924675-164.28251266-165.70464135" fill="#848080" /><path d="M340.19434166 497.8443737c9.35777664-0.89761733 16.91259384-8.09555054 18.38956832-17.47804641 1.44993782-9.38326836-3.61055374-18.61513137-12.25765227-22.34850884-4.14356231-1.79291725-101.03525162-44.87854958-93.33675385-146.10228539C261.81349945 196.64740753 386.24087524 182.69571494 391.63044167 182.12639999c11.2835598-1.10309602 19.57454682-11.23257637 18.48072052-22.64900206-1.06601716-11.44191742-10.98847389-19.77616311-22.44661332-18.73254778C330.90068054 146.21320916 221.100914 188.34019852 211.89299773 308.72057152c-5.65761566 74.87148284 34.23073769 128.68062973 73.70272637 160.23473739-68.61133576 24.10589218-181.04524613 92.61912346-167.12831496 281.23695373 0.79874038 10.90581894 9.83207703 19.27096367 20.48838615 19.27096368 0.53455353 0 1.04052544 0 1.57507896-0.05948067 11.33995057-0.86594582 19.86731528-10.84633827 19.00832176-22.28902817-16.70093537-226.77042961 172.6638794-248.49477768 180.65514565-249.27034378M970.20970535 308.72134399C961.02728081 188.37109756 851.25995827 146.24256325 794.49608994 140.74562263c-11.40174865-1.01812363-21.38136863 7.32075691-22.44815827 18.70396615-1.09305382 11.41179084 7.22651482 21.57371521 18.53942871 22.67681121 5.29918672 0.50597191 129.69875336 13.80414963 138.54978561 129.7590065 7.73248673 101.22528076-89.18701172 144.3394947-93.2440567 146.07370377-8.67490769 3.70556831-13.74003411 12.87486077-12.32254028 22.25658417 1.39277458 9.38249588 8.97231101 16.67080879 18.33086014 17.59778023 8.05692673 0.77942848 197.42019653 22.49836922 180.72080611 249.2433071-0.85822105 11.4426899 7.66759873 21.41767502 19.00909424 22.28439332 0.53300857 0.06411552 1.03898048 0.06411552 1.57044412 0.06411552 10.66017151 0 19.69350815-8.33656311 20.49147606-19.27096367 13.94474029-188.55912209-98.4883976-257.07235337-167.12831498-281.17901802 39.47353363-31.61204338 79.38737869-85.36248207 73.64479065-160.23473739z" fill="#848080" /></svg>