<?xml version="1.0" standalone="no"?><!DOCTYPE svg PUBLIC "-//W3C//DTD SVG 1.1//EN" "http://www.w3.org/Graphics/SVG/1.1/DTD/svg11.dtd"><svg class="icon" width="200px" height="200.00px" viewBox="0 0 1024 1024" version="1.1" xmlns="http://www.w3.org/2000/svg"><path d="M511.293407 960.012663c247.336178 0 447.828468-200.49229 447.828468-447.828468 0-247.336178-200.49229-447.828468-447.828468-447.828468-247.342318 0-447.828468 200.49229-447.828468 447.828468C63.465962 759.520373 263.958252 960.012663 511.293407 960.012663L511.293407 960.012663zM511.293407 148.322094c200.952778 0 363.861078 162.910347 363.861078 363.862101 0 200.952778-162.9083 363.861078-363.861078 363.861078-200.953801 0-363.862101-162.900114-363.862101-363.861078C147.432329 311.23244 310.339606 148.322094 511.293407 148.322094L511.293407 148.322094zM454.346417 265.976724l113.896026 0 0 113.895003L454.346417 379.871727 454.346417 265.976724 454.346417 265.976724zM454.346417 473.65467l113.896026 0 0 284.739043L454.346417 758.393713 454.346417 473.65467 454.346417 473.65467zM454.346417 473.65467" /></svg>