<?xml version="1.0" standalone="no"?><!DOCTYPE svg PUBLIC "-//W3C//DTD SVG 1.1//EN" "http://www.w3.org/Graphics/SVG/1.1/DTD/svg11.dtd"><svg class="icon" width="200px" height="170.10px" viewBox="0 0 1204 1024" version="1.1" xmlns="http://www.w3.org/2000/svg"><path d="M680.513622 0.017653h-160.042423a118.169422 118.169422 0 1 0 0 236.303537h160.042423a118.169422 118.169422 0 1 0 0-236.303537z m0 157.535691h-160.042423a39.401576 39.401576 0 1 1 0-78.767845h160.042423a39.401576 39.401576 0 1 1 0 78.732539z m0 630.072154h-160.042423a118.169422 118.169422 0 1 0 0 236.303537h160.042423a118.169422 118.169422 0 1 0 0-236.338843z m0 157.535691h-160.042423a39.401576 39.401576 0 1 1 0-78.767846h160.042423a39.401576 39.401576 0 1 1 0 78.73254zM240.388134 866.358037a160.854462 160.854462 0 0 1-113.261878-46.074423 156.123449 156.123449 0 0 1 0-222.88723 160.218953 160.218953 0 0 1 113.261878-45.897893h80.038864v-78.767846H240.388134a236.303537 236.303537 0 1 0 0 472.571768V1023.893729l120.040643-118.169422-120.040643-118.134115v78.767845zM960.631994 78.750193h-80.038865v78.767845H960.631994a160.713238 160.713238 0 0 1 113.226571 45.897893 156.088142 156.088142 0 0 1 0 222.922536 160.713238 160.713238 0 0 1-113.226571 45.897893v-78.732539l-120.040644 118.134115 120.040644 118.134116v-78.73254a236.303537 236.303537 0 1 0 0-472.571768z" fill="#2c2c2c" /><path d="M680.513622 393.786269h-160.042423a118.134115 118.134115 0 1 0 0 236.268231h160.042423a118.134115 118.134115 0 1 0 0-236.268231z m0 157.535692h-160.042423a39.401576 39.401576 0 1 1 0-78.767846h160.042423a39.401576 39.401576 0 1 1 0 78.767846z" fill="#2c2c2c" /></svg>