<?xml version="1.0" standalone="no"?><!DOCTYPE svg PUBLIC "-//W3C//DTD SVG 1.1//EN" "http://www.w3.org/Graphics/SVG/1.1/DTD/svg11.dtd"><svg class="icon" width="80px" height="80.00px" viewBox="0 0 1024 1024" version="1.1" xmlns="http://www.w3.org/2000/svg"><path d="M958.75 481.93c0-0.53-0.08-1.06-0.12-1.58a26.91 26.91 0 0 0 0.12-3.71 33 33 0 0 0-4.17-14.64q-2.79-10.78-5.6-21.58l-21.84-84.12-25.89-99.74q-10.43-40.14-20.84-80.26c-4.6-17.7-8-37.33-18.48-52.64-17.29-25.33-44.81-40.84-75.69-41.12H240.7a99.28 99.28 0 0 0-43.2 9.85c-22.93 10.87-39.86 33.3-46.4 57.5-3.88 14.33-7.55 28.72-11.32 43.07q-11.64 44.25-23.27 88.5l-26 98.89q-9.8 37.25-19.58 74.49c-0.64 2.4-1.31 4.81-2 7.22a26.49 26.49 0 0 0-3.91 14.88c0 0.92 0.13 1.83 0.24 2.74-0.15 1.58-0.24 3.18-0.24 4.79V816c0 11.78-0.11 23.56 0 35.34a91.59 91.59 0 0 0 44.29 77.65c14.21 8.47 30.66 12.49 47.13 12.53h713.59c31.55-0.87 61.72-18 77.13-45.95 8-14.46 11.56-30.38 11.56-46.82V518.53c0.03-12.15 0.6-24.46 0.03-36.6zM153.61 376.84l46-174.87c3.52-13.37 6.11-27.67 10.88-40.78a59.22 59.22 0 0 1 3.69-6.47l0.19-0.29c0.95-1.07 1.9-2.14 2.92-3.15s2.1-1.84 3.13-2.78l0.31-0.21a58.63 58.63 0 0 1 5.91-3.36 63.68 63.68 0 0 1 7.65-2.1c5.69-0.38 11.46-0.19 17.14-0.19h469.79c21.54 0 43.08-0.15 64.62 0 1.49 0 3 0.06 4.45 0.16a64.71 64.71 0 0 1 7.82 2.16 57.77 57.77 0 0 1 5.42 3l0.13 0.08c1.13 1.12 2.68 2.14 3.73 3.18s2 2.1 2.92 3.16l0.09 0.12a60.57 60.57 0 0 1 3.77 6.59c4 11.06 6.17 23 9.09 34.3q10 38.53 20 77.09l45.2 174.11h-23.83l-102.63 0.24h-23.42c-16.24 0-30 13.75-30 30.06v104.73h-367.3c-8.6 0-17.22-0.11-25.84-0.17V476.93c0-16.25-13.77-30.06-30.06-30.06H135.2q9.2-35.01 18.41-70.03z m-16.72 498.55a10.44 10.44 0 0 1 1.41 1.1c-0.09 0.06-0.69-0.44-1.41-1.1z m660.11 6H155.93c-1.59 0-3.17-0.06-4.74-0.17a62.67 62.67 0 0 1-7.73-2.12 58.31 58.31 0 0 1-6-3.42l-1.1-0.75c-1.1-1-2.28-2.24-2.39-2.35-1-1-1.89-2.12-2.86-3.15a58 58 0 0 1-3.66-6.35 64 64 0 0 1-2.19-8.06c-1-12.38-0.09-25.21-0.09-37.51v-289.9c0-6.86 0.09-13.74 0.16-20.62h130v104.69c0 16.25 13.78 30.06 30.06 30.06h397.34c18.35 0 36.75 0.36 55.1 0h0.79c16.25 0 30.06-13.78 30.06-30.06V506.94l34-0.05 96-0.15v302.09c0 14.09 0.12 28.18 0 42.27 0 1.4-0.06 2.8-0.15 4.19a64.64 64.64 0 0 1-2.13 7.77 60.31 60.31 0 0 1-3.43 6c-0.24 0.37-0.5 0.74-0.75 1.1-1 1.1-2.23 2.28-2.34 2.39-1 1-2.13 1.9-3.16 2.87a62.4 62.4 0 0 1-6.34 3.66 63.62 63.62 0 0 1-7.76 2.12c-1.33 0.09-2.66 0.14-4 0.16H797z m95.66-11.72a10.19 10.19 0 0 1 1.1-1.42c0.07 0.07-0.44 0.66-1.1 1.39z" fill="#02C261" /><path d="M480.11 497.69L490.52 508a30.53 30.53 0 0 0 42.5 0l72.7-72 10.43-10.35c11.19-11.09 11.93-31.56 0-42.51s-30.57-11.83-42.5 0Q557.8 398.8 542 414.52v-185.6c0-15.72-13.83-30.78-30.06-30s-30.06 13.2-30.06 30v185.69l-21.29-21.17-10.4-10.35c-11.16-11.1-31.51-12-42.51 0s-11.91 30.66 0 42.51z" fill="#02C261" /></svg>