<?xml version="1.0" standalone="no"?><!DOCTYPE svg PUBLIC "-//W3C//DTD SVG 1.1//EN" "http://www.w3.org/Graphics/SVG/1.1/DTD/svg11.dtd"><svg class="icon" width="200px" height="138.01px" viewBox="0 0 1484 1024" version="1.1" xmlns="http://www.w3.org/2000/svg"><path d="M519.23027051 52.02150749h-51.48488985v147.05769648h51.48488985zM206.92452823 199.07920397h102.87180701V52.02150749h-102.87180701z m-21.08055492 59.32274179V-5.81530866l-177.98455478 131.36566439zM1010.95750748 53.98096958h-51.9584275v147.05769767H1010.46764165z m13.73256879 269.60577846a522.75206675 522.75206675 0 0 0-103.44331614 58.34301016c-28.93473625 20.5906903-130.4185903 85.28562676-151.0092806 94.60940436a238.77689405 238.77689405 0 0 0-69.12005705 53.42802496 497.05044347 497.05044347 0 0 1-64.72759402 48.98657378 130.38593275 130.38593275 0 0 0-15.6757039 12.75283836 37.44207243 37.44207243 0 0 0-5.89471804-11.77310671 40.26696409 40.26696409 0 0 0-16.67176374-5.87838865c3.44538894-5.89471805 7.36431551 0 16.67176374-12.75283837s3.42906076-19.59462927 6.38458386-24.99948148a40.21797835 40.21797835 0 0 0 31.36773719-11.75677854 141.83246265 141.83246265 0 0 0 34.29060154-30.40433373 94.919653 94.919653 0 0 0 10.77704689-27.93867643c2.9555231-20.57436092-2.93919493-31.36773719-14.20610644-34.79679673-19.12109283-5.87838866-48.986575 21.08055613-48.986575 21.08055613a56.74278244 56.74278244 0 0 0-11.75677853 3.42905955 112.35887362 112.35887362 0 0 0-48.98657379 6.36825447c-9.30744942 2.93919493-26.95894479 31.36773719-44.61044137 56.8734139s-48.986575 54.89762122-52.93815793 77.44777482a698.76082885 698.76082885 0 0 0-5.40485222 138.22378469 910.80738224 910.80738224 0 0 0 24.01975106 127.4630672c4.89865701 33.8170651-4.40879119 71.56938494 0 97.97314878 6.8744497 79.89710271 267.69530092 124.09932276 275.04328704 114.20403485s12.26297253-7.34798612 10.28718107-14.69597348 4.42512058-8.32771777 11.28324088-22.04395838c2.93919493-4.89865701 3.42906076-17.16162955 7.36431551-23.52988402 10.28718107-17.16162955 102.4635857-102.4635857 147.07402586-150.48675724a98.36504193 98.36504193 0 0 0 20.59068909-33.83339447c4.89865701-11.75677732 0 0 4.4087924-19.59463048a386.79799277 386.79799277 0 0 0 15.69203209-65.18480108 39.18925975 39.18925975 0 0 0-9.79731404-31.38406536 155.76097799 155.76097799 0 0 0 26.87730028-64.62962135 40.82214502 40.82214502 0 0 0-24.49328749-36.28272238 233.35571244 233.35571244 0 0 0 17.65149536-48.98657499c3.42906076-14.69597226-11.75677732-32.34746763-29.89813851-48.98657501a85.82447833 85.82447833 0 0 0-72.07558015-6.36825448c-23.79114693 8.60530885 62.26193674-45.5901718 82.36275999-64.71126464 6.38458387-6.36825449 37.75231985-24.4932875 59.32274182-38.71572332a124.9157654 124.9157654 0 0 0 32.85366282-26.46907896c7.34798612-9.32377759 11.26691271-15.69203329 9.79731524-23.04001942-8.81758359-26.95894479-22.06028778-40.20164896-54.89762121-33.83339327z m144.13483212-124.01767826h102.87180701V52.51137332h-102.87180701z m-106.38251107 0h69.60992164V52.51137332h-70.11611685z m-715.79182936 0h69.62625224V52.51137332h-70.11611807zM1292.85891483-5.81530866v262.25779113L1470.3372756 125.14213441z m0 0"  /></svg>