<?xml version="1.0" standalone="no"?><!DOCTYPE svg PUBLIC "-//W3C//DTD SVG 1.1//EN" "http://www.w3.org/Graphics/SVG/1.1/DTD/svg11.dtd"><svg class="icon" width="200px" height="200.00px" viewBox="0 0 1024 1024" version="1.1" xmlns="http://www.w3.org/2000/svg"><path d="M972.658 209.348c14.5 0.02 26.272-11.777 26.292-26.35 0.02-14.572-11.72-26.401-26.22-26.421L32.458 155.28c-14.501-0.02-26.273 11.777-26.292 26.35-0.02 14.572 11.719 26.402 26.22 26.422l940.272 1.295zM180.467 992.356v26.659l26.526-0.274 626.369-6.473 25.986-0.269V289.397c0-14.572-11.755-26.386-26.256-26.386s-26.257 11.814-26.257 26.386v696.486l25.987-26.384-626.369 6.473 26.527 26.384V282.67c0-14.573-11.756-26.386-26.257-26.386-14.5 0-26.256 11.813-26.256 26.386v709.686z"  /><path d="M656.41 847.079c0 14.573 11.756 26.386 26.257 26.386 14.5 0 26.256-11.813 26.256-26.386V372.132c0-14.573-11.755-26.386-26.256-26.386s-26.257 11.813-26.257 26.386v474.947zM341.333 847.079c0 14.573 11.756 26.386 26.257 26.386 14.5 0 26.256-11.813 26.256-26.386V372.132c0-14.573-11.755-26.386-26.256-26.386s-26.257 11.813-26.257 26.386v474.947zM498.872 847.079c0 14.573 11.755 26.386 26.256 26.386s26.257-11.813 26.257-26.386V372.132c0-14.573-11.756-26.386-26.257-26.386-14.5 0-26.256 11.813-26.256 26.386v474.947zM392.148 116.722c0-14.658 11.61-26.358 26.253-26.358h204.525c14.483 0 26.253 11.798 26.253 26.186v55.095h52.513V116.55c0-43.563-35.311-78.958-78.766-78.958H418.4c-43.677 0-78.766 35.359-78.766 79.13v48.589h52.513v-48.59z"  /></svg>