<?xml version="1.0" standalone="no"?><!DOCTYPE svg PUBLIC "-//W3C//DTD SVG 1.1//EN" "http://www.w3.org/Graphics/SVG/1.1/DTD/svg11.dtd"><svg class="icon" width="200px" height="200.00px" viewBox="0 0 1024 1024" version="1.1" xmlns="http://www.w3.org/2000/svg"><path d="M512 0C228.864 0 0 228.864 0 512s228.864 512 512 512 512-228.864 512-512S795.136 0 512 0zM434.176 623.104c3.584 20.48 14.336 51.2 23.04 66.56C348.16 768 328.704 784.896 317.44 798.72c-7.168-15.872-27.136-43.008-39.424-54.272 13.312-11.264 31.744-36.352 31.744-69.632V479.744h-92.16V407.04h167.424v250.368l49.152-34.304zM361.984 378.88c-20.48-29.184-68.608-75.776-103.936-108.544l50.176-47.104c36.352 30.208 84.992 72.704 108.544 101.888L361.984 378.88z m329.728 344.576c33.792 0 38.4-14.336 43.008-98.304 17.92 12.8 50.688 24.576 71.68 30.208-8.704 109.056-31.232 139.776-109.056 139.776h-119.296c-83.456 0-110.08-22.016-110.08-103.936V458.752h224.256V330.24H454.656V255.488H768v305.152h-75.776v-31.232h-146.432v162.816c0 26.624 5.632 31.232 40.448 31.232h105.472z"  /></svg>