<?xml version="1.0" standalone="no"?><!DOCTYPE svg PUBLIC "-//W3C//DTD SVG 1.1//EN" "http://www.w3.org/Graphics/SVG/1.1/DTD/svg11.dtd"><svg class="icon" width="200px" height="200.00px" viewBox="0 0 1024 1024" version="1.1" xmlns="http://www.w3.org/2000/svg"><path d="M1004.8 397.511111l-18.488889 5.688889-16.355555 7.822222-23.466667 12.088889-19.2 11.377778-19.911111 13.511111-23.466667 19.2-32.711111 27.022222-28.444444 26.311111-23.466667 22.044445-32 34.133333-44.088889 48.355556-14.222222 14.933333-35.555556 41.955556-37.688889 44.8-36.266666 46.933333-30.577778 40.533333-17.777778 25.6-32.711111 46.222222-31.288889 46.933334-28.444444 47.644444-9.955556 17.066667-4.266667 7.822222-9.244444-12.088889-12.8-14.933333-23.466667-28.444445-31.288889-35.555555-29.866666-32-38.4-39.111111-42.666667-39.111111-32-27.733334-29.866667-24.177777-20.622222-15.644445L149.333333 718.222222l-14.933333-9.955555-27.022222-18.488889-19.2-10.666667-22.044445-12.088889L42.666667 655.644444l-23.466667-9.244444 218.311111-136.533333 190.577778 224 155.733333-292.266667 4.266667-7.111111 5.688889-7.822222 17.777778-28.444445 17.777777-26.311111 15.644445-22.755555 16.355555-23.466667 16.355556-22.044445 15.644444-19.2 26.311111-33.422222 17.066667-19.911111 13.511111-15.644444 11.377778-12.8 8.533333-8.533334 8.533334-9.244444 7.822222-8.533333 8.533333-8.533334 9.244445-9.244444 8.533333-8.533334 8.533333-7.822222 9.955556-9.244444 8.533333-7.822222 6.4-5.688889 6.4-5.688889 6.4-4.977778 4.977778-4.266667 4.977778-4.266666 6.4-4.977778 6.4-5.688889 4.266666-2.844444 5.688889-4.266667 5.688889-4.266667 12.088889-9.244444 10.666667-7.111111 9.955555-6.4 9.244445-6.4 7.822222-4.977778 4.266667-2.844445 5.688889-3.555555 4.977777-2.844445 9.955556-5.688888 15.644444-9.955556v6.4l-0.711111 13.511111-2.844444 24.177778-3.555556 32.711111-3.555555 34.844444-1.422223 19.2-2.844444 33.422223-1.422222 20.622222v20.622222l0.711111 27.022222 2.133333 27.733334 3.555556 27.733333 4.977778 22.755556 7.111111 27.733333 8.533333 24.177778 2.133333 4.977777 2.133334 5.688889 2.133333 3.555556z" fill="#62B62F" /><path d="M972.8 185.6c-266.666667 115.911111-442.311111 542.577778-544 697.6-49.777778-116.622222-215.466667-240.355556-306.488889-302.222222l-103.111111 64L42.666667 655.644444l22.755555 11.377778 22.044445 12.088889 19.2 11.377778 27.022222 18.488889 14.933333 9.244444 24.888889 19.2 20.622222 14.933334 29.155556 24.177777 32.711111 28.444445 41.955556 39.111111 38.4 38.4 29.155555 32 31.288889 35.555555 24.177778 28.444445 12.8 14.933333 9.244444 12.088889 4.266667-7.822222 9.244444-17.066667 28.444445-48.355555 31.288889-46.222223 33.422222-46.222222 17.777778-25.6 30.577777-40.533333 36.266667-46.222222 37.688889-44.8 35.555556-41.955556 14.222222-14.933333 44.8-49.066667 32-33.422222 22.755555-22.044445 28.444445-26.311111 32.711111-27.022222 24.177778-19.2 19.911111-13.511111 19.2-12.088889 22.755555-12.088889 17.066667-7.822222 18.488889-5.688889v-1.422222l-2.133333-3.555556-2.133334-5.688889-2.133333-5.688888-8.533333-24.177778-7.822223-27.733334-4.266666-22.044444-3.555556-27.733333-2.133333-27.733334-0.711111-27.022222v-20.622222l2.133333-18.488889z" fill="#4DB233" /></svg>