<?xml version="1.0" standalone="no"?><!DOCTYPE svg PUBLIC "-//W3C//DTD SVG 1.1//EN" "http://www.w3.org/Graphics/SVG/1.1/DTD/svg11.dtd"><svg class="icon" width="200px" height="200.00px" viewBox="0 0 1024 1024" version="1.1" xmlns="http://www.w3.org/2000/svg"><path d="M192 624.992h46.336v-224.768H192zM430.304 625.76h46.304v-224.736h-46.304zM590.432 625.76H636.8v-224.736H590.4zM262.304 625.76h48.672v-224.736H262.304z" fill="#000000" /><path d="M262.144 444.672h146.304v-44.16H262.144zM262.4 531.072h146.304v-44.128H262.368zM430.304 624.992h137.504v-44.16h-137.504zM534.72 444.672h157.76v-44.16h-157.76zM262.144 624.992h146.304v-44.16H262.144zM859.136 562.4c0.128-30.592-11.744-49.472-40-61.728-20-8.704-40.768-15.168-60.384-24.832-14.72-7.264-16.576-23.04-5.792-32.768 12.736-11.52 35.04-7.52 46.848 6.08 0.416 0.48 0.928 1.088 1.536 1.92l0.48 0.64a44.224 44.224 0 0 1 2.752 4.544c0.128 0.32 0.352 0.576 0.512 0.864a25.984 25.984 0 0 1 2.944 10.816l45.12-1.28a113.92 113.92 0 0 0-4-24.384 36.672 36.672 0 0 0-2.016-6.112c0-0.064-0.064-0.096-0.096-0.16a60.672 60.672 0 0 0-12.896-20.448c-23.104-24-68.544-29.952-99.104-13.248-21.056 11.52-33.568 29.984-35.392 57.44-1.856 27.712 10.88 45.984 29.568 59.52 7.872 5.664 16.96 9.28 25.792 12.896 13.76 5.632 27.744 10.688 41.728 15.648 9.6 3.392 17.344 10.688 14.56 21.888-1.92 7.52-9.856 16.48-16.448 18.272-21.024 5.76-44.288 7.328-54.016-35.424h-43.2s-7.2 63.904 48.832 80.768a57.536 57.536 0 0 0 15.328 3.168s62.048 13.024 88.16-36.736c0.96-1.696 1.856-3.52 2.656-5.344 0.192-0.384 0.384-0.672 0.544-1.088 3.84-9.12 5.92-19.616 5.984-30.912" fill="#000000" /><path d="M864 832a32 32 0 0 0 32-32V224a32 32 0 0 0-32-32H160a32 32 0 0 0-32 32v576a32 32 0 0 0 32 32h704z m0 64H160a96 96 0 0 1-96-96V224a96 96 0 0 1 96-96h704a96 96 0 0 1 96 96v576a96 96 0 0 1-96 96z" fill="#000000" /></svg>