<?xml version="1.0" standalone="no"?><!DOCTYPE svg PUBLIC "-//W3C//DTD SVG 1.1//EN" "http://www.w3.org/Graphics/SVG/1.1/DTD/svg11.dtd"><svg class="icon" width="200px" height="189.28px" viewBox="0 0 1082 1024" version="1.1" xmlns="http://www.w3.org/2000/svg"><path d="M844.643404 51.020945l-7.631004-47.361709a4.349412 4.349412 0 0 0-7.995625-1.562663l-24.950518 41.058968c-60.553189 99.541629-190.709989 161.214726-328.510816 226.377771-57.089286 27.008024-116.131901 55.135957-171.892923 86.506416-123.997304 66.165753-227.341413 208.836879-161.032415 364.764596a4.466612 4.466612 0 0 1-2.161684 5.76883C75.500707 758.568678 27.566022 817.83267 1.130974 899.494831A22.042663 22.042663 0 1 0 43.062429 913.10302c23.439944-72.559649 64.004069-126.185032 120.611534-152.62008a4.33639 4.33639 0 0 1 5.208877 1.302219c42.243988 55.435468 117.121587 98.434743 215.530285 98.434743 70.736542 0 180.448503-22.476302 301.502792-143.517568l1.185019-0.2344c193.822293-227.406524 181.828855-513.855662 157.425269-665.433967z" fill="#04BE02" /></svg>