<?xml version="1.0" standalone="no"?><!DOCTYPE svg PUBLIC "-//W3C//DTD SVG 1.1//EN" "http://www.w3.org/Graphics/SVG/1.1/DTD/svg11.dtd"><svg class="icon" width="200px" height="200.00px" viewBox="0 0 1024 1024" version="1.1" xmlns="http://www.w3.org/2000/svg"><path d="M127.871729 831.65151h760.836785c12.787173 0 0 19.180759 0 31.967932s12.787173 25.574346 0 25.574345H127.871729v-25.574345-31.967932z m895.1021 121.478142c0 12.787173 0 31.967932-6.393586 44.755105s-19.180759 25.574346-38.361519 25.574346H121.478142c-63.935864 6.393586-115.084556-44.755105-121.478142-108.69097V128.357002C6.393586 51.633965 76.723037-5.908313 153.446074 0.485273H895.102101v767.230372H102.297383c-31.967932 12.787173-51.148691 44.755105-51.148692 83.116624l6.393587 70.329451c0 19.180759 19.180759 38.361519 44.755105 38.361518h805.591891c12.787173 0 25.574346-6.393586 38.361518-12.787173 6.393586-19.180759 12.787173-38.361519 12.787173-57.542278V58.027551c19.180759 6.393586 44.755105 19.180759 57.542278 31.967932 6.393586 25.574346 6.393586 6.393586 6.393586 25.574346v837.559823zM479.518983 639.843917C543.454847 569.514466 575.422779 480.004256 575.422779 384.100459h63.935864v255.743458h63.935865V384.100459h63.935864V320.164595h-63.935864V192.292866h63.935864V128.357002H447.55105v63.935864h63.935865v127.871729H447.55105v63.935864h63.935865c0 83.116624-38.361519 159.839661-95.903797 210.988353 6.393586 12.787173 51.148691 31.967932 63.935865 44.755105zM191.807593 441.642737V575.908052h63.935864V511.972188h127.871729V256.228731H306.892149c6.393586-19.180759 12.787173-38.361519 19.180759-63.935865H383.615186V128.357002H191.807593v63.935864h63.935864c-19.180759 76.723037-63.935864 147.052488-127.871728 191.807593 19.180759 19.180759 38.361519 38.361519 63.935864 57.542278z m0-19.180759v-31.967932 31.967932zM319.679322 320.164595v127.871729H255.743457V320.164595h63.935865z m319.679321-127.871729v127.871729H575.422779V192.292866h63.935864z" fill="#ffffff" /></svg>