<?xml version="1.0" standalone="no"?><!DOCTYPE svg PUBLIC "-//W3C//DTD SVG 1.1//EN" "http://www.w3.org/Graphics/SVG/1.1/DTD/svg11.dtd"><svg class="icon" width="80px" height="80.00px" viewBox="0 0 1024 1024" version="1.1" xmlns="http://www.w3.org/2000/svg"><path d="M512 540.5c-59.1 0-114.7-23-156.5-64.8s-64.8-97.4-64.8-156.5 23-114.7 64.8-156.5S452.9 97.9 512 97.9s114.7 23 156.5 64.8 64.8 97.4 64.8 156.5-23 114.7-64.8 156.5-97.4 64.8-156.5 64.8z m0-392.7c-94.5 0-171.3 76.9-171.3 171.3S417.5 490.5 512 490.5c94.5 0 171.3-76.9 171.3-171.3S606.5 147.8 512 147.8zM899.4 926.6c-13.8 0-25-11.2-25-25 0-115.6-53.3-221.6-146.1-290.8-11.1-8.2-13.4-23.9-5.1-35 8.2-11.1 23.9-13.4 35-5.1 50.5 37.6 92.3 87 120.9 142.8 30.1 58.6 45.3 121.8 45.3 188.1 0 13.8-11.2 25-25 25z" fill="#02C261" /><path d="M124.6 927.9c-13.8 0-25-11.2-25-25 0-55.7 10.9-109.7 32.4-160.5 20.8-49.1 50.5-93.2 88.4-131.1s82-67.6 131.1-88.4c50.9-21.5 104.9-32.4 160.5-32.4 13.8 0 25 11.2 25 25s-11.2 25-25 25c-199.8 0-362.4 162.6-362.4 362.4 0 13.8-11.2 25-25 25z" fill="#02C261" /></svg>