<?xml version="1.0" standalone="no"?><!DOCTYPE svg PUBLIC "-//W3C//DTD SVG 1.1//EN" "http://www.w3.org/Graphics/SVG/1.1/DTD/svg11.dtd"><svg class="icon" width="200px" height="200.00px" viewBox="0 0 1024 1024" version="1.1" xmlns="http://www.w3.org/2000/svg"><path d="M857.2 224.9c-64.7-77.7-155.3-133-258.6-153.1 45.3 48 82.5 102.5 110.4 162-13.3 3-26.9 5.6-40.9 8-33.2-67.1-79.1-127.3-136.2-177.5v189.8c-6.6 0.1-13.2 0.2-19.9 0.2-6.6 0-13.2-0.1-19.8-0.2V64.2c-57.2 50.2-103 110.5-136.3 177.5-14-2.3-27.7-5-40.9-8 27.9-59.5 65.1-114 110.4-162-103.2 20.1-193.8 75.5-258.5 153.1 169 96 521.3 96 690.3 0.1M859.5 779.1c-168.9-97.6-526-97.6-694.8 0-1.8 1-4.8 2.9-7.6 4.7 65.3 84.2 160 144.5 268.7 165.6-49.6-52.5-89.5-112.8-118.1-178.8 13.1-3.1 26.4-5.9 40.3-8.3 33.7 73.9 82.4 140.1 144.3 194.4v-208c6.6-0.1 13.2-0.2 19.8-0.2 6.7 0 13.3 0.1 19.9 0.2v207.9c61.8-54.3 110.5-120.4 144.2-194.3 13.8 2.4 27.2 5.2 40.3 8.3-28.7 66-68.5 126.4-118.2 178.8 108.9-21.1 203.6-81.5 268.9-165.7-3.2-1.9-6.4-3.9-7.7-4.6M103.3 365h167.2c3.9-17.2 8.5-34.3 13.7-51-52.2-12.8-99.6-30.3-138.3-52.7-1.4-0.9-3-1.7-4.4-2.6-23.1 33.7-41.7 70.7-54.9 110.1 5.1-2.5 10.7-3.8 16.7-3.8zM103.3 643.8c-7.9 0-15.2-2.3-21.5-6.3 11.8 39.9 29.1 77.4 50.9 111.8 3.4-2 7.9-4.7 13.2-7.7 37.4-21.7 82.9-38.8 133.2-51.5-4.3-15.2-8-30.7-11.3-46.3H103.3zM308.5 643.8c2.8 12.6 6 25.1 9.6 37.5 55.1-11 114.4-17.1 174.2-18.1v-19.4H308.5zM492.3 365v-25.4c-57.9-1.1-115.3-6.8-169-17.1-4.5 13.9-8.5 28.1-12 42.5h181zM531.9 643.8v19.4c59.8 1 119.1 7.1 174.2 18.1 3.6-12.4 6.8-24.9 9.6-37.5H531.9zM712.7 365c-3.5-14.3-7.5-28.5-12-42.5-53.6 10.3-111 16-168.8 17.1V365h180.8zM919.3 365c6.7 0 13.1 1.7 18.7 4.7-13.2-39.8-31.9-77-55.2-111-1.5 0.9-2.9 1.7-4.5 2.6-38.8 22.4-86.1 39.9-138.4 52.7 5.2 16.8 9.8 33.8 13.7 51h165.7zM919.3 643.8H756.2c-3.2 15.6-7 31.1-11.3 46.3 50.2 12.7 95.8 29.8 133.4 51.5 5.9 3.4 9.7 5.8 13 7.9 22.1-34.8 39.5-72.9 51.4-113.3-6.6 4.7-14.7 7.6-23.4 7.6z" fill="#ffffff" /><path d="M260.7 423.8h-60.1v184.5h-27V423.8h-59.9v-24h147.1v24z" fill="#ffffff" /><path d="M260.9 422.8h-60.1c-0.5 0-1.6 0.5-1.6 1.1v184.5c0.5-0.4 1.1-0.8 1.6-1.1h-27c0.4 0.3 0.9 0.6 1.3 0.9v-62.3-99.3-22.9c0-0.7-0.7-0.9-1.3-0.9h-59.9c0.4 0.3 0.9 0.6 1.3 0.9v-24c-0.5 0.4-1.1 0.8-1.6 1.1h147.1c-0.4-0.3-0.9-0.6-1.3-0.9v24c0 1.5 2.9 1 2.9-0.2v-24c0-0.7-0.7-0.9-1.3-0.9H113.9c-0.5 0-1.6 0.5-1.6 1.1v24c0 0.7 0.7 0.9 1.3 0.9h59.9c-0.4-0.3-0.9-0.6-1.3-0.9v184.5c0 0.7 0.7 0.9 1.3 0.9h27c0.5 0 1.6-0.5 1.6-1.1v-62.3-99.3-22.9c-0.5 0.4-1.1 0.8-1.6 1.1h60.1c1.6 0 2.3-2 0.3-2zM266 506.5c0-33.6 9.1-60.4 27.3-80.3 18.2-19.9 42.9-29.9 74-29.9 29 0 52.3 9.7 70 29.2 17.7 19.5 26.5 44.8 26.5 76 0 33.8-9.1 60.6-27.2 80.5-18.1 19.8-42.3 29.7-72.7 29.7-29.6 0-53.3-9.7-71.2-29.2-17.8-19.4-26.7-44.7-26.7-76z m28.3-2.1c0 25.2 6.4 45.4 19.3 60.6 12.9 15.2 29.7 22.8 50.4 22.8 22.2 0 39.7-7.3 52.4-21.9 12.7-14.6 19-35 19-61.2 0-26.9-6.2-47.7-18.6-62.3-12.4-14.6-29.4-21.9-51.1-21.9-21.3 0-38.5 7.7-51.7 23.1-13.2 15.5-19.7 35.8-19.7 60.8z" fill="#ffffff" /><path d="M267.4 506.2c0.1-21.5 3.8-43.2 14.3-62.1 10.1-18.2 26.1-32.9 45.6-40.4 20.8-8 45.6-9 67.1-3.2 19.8 5.4 36.8 17.8 48.7 34.5 12.1 17.1 17.9 37.7 19 58.5 1.2 21.8-1.5 44.6-10.8 64.6-8.5 18.3-22.8 34-40.8 43.2-20.3 10.3-45 12.3-67.2 8.1-22.9-4.4-42.9-17.1-56.4-36.1-14-19.7-19.3-43.4-19.5-67.1 0-0.5-2.9-0.1-2.9 0.8 0.1 23.7 5.4 47.5 19.4 67 12.2 17 29.5 29.4 49.7 34.8 40.3 10.8 86.5-0.9 111.3-35.6 13.1-18.2 18.8-40.4 20-62.6 1.3-23.8-2.2-48.3-14.3-69.1-10.5-18-26.7-32.5-46.3-39.7-20.5-7.6-44.1-7.8-65.2-2.8-21.9 5.2-41.1 17.8-54.3 36.1-15 20.9-20.2 46.5-20.3 71.8 0 0.5 2.9 0.1 2.9-0.7z" fill="#ffffff" /><path d="M292.8 504.8c0.2 33.6 14.3 70 49.2 80.7 29.4 9 64.3-0.9 81.4-27.2 9.3-14.4 12.8-31.7 13.4-48.6 0.6-17.8-1.3-36.5-9-52.8-6.6-13.8-17.6-25.3-31.8-31.4-14.4-6.2-31.4-7.1-46.6-3.8-16.6 3.7-30.8 13.4-40.7 27.2-11.7 16.3-15.8 36.2-15.9 55.9 0 0.5 2.9 0.1 2.9-0.8 0.2-31.7 13-66.4 44.9-78.6 30.1-11.5 66.2-0.2 82.1 28.2 7.3 13.1 10.2 28.1 11 42.9 0.9 16.7-0.4 34-6.7 49.6-5.5 13.7-15 25.8-28 33.1-15.3 8.6-35.1 10.3-52 6-16.6-4.2-30.2-15.5-39-30.1-9.2-15.4-12.3-33.3-12.4-51 0.1-0.6-2.8-0.2-2.8 0.7z" fill="#ffffff" /><path d="M616.1 608.3H504V399.8h107.4v24h-80.5v66.7h74.5v23.8h-74.5v70.1h85.2v23.9z" fill="#ffffff" /><path d="M617.1 607.7H513.2c-1.5 0-6.7 0.9-8 0-0.4-0.3 0.5 0.6 0.3-0.2-0.2-0.6 0-1.4 0-2V454.6v-55.1c-0.8 0.3-1.6 0.6-2.4 1h99.1c2.2 0 5.2-0.5 7.4 0 1.5 0.4 0-0.5 0.4 0.3 0.7 1.9 0 5.5 0 7.6v15.9c0.8-0.3 1.6-0.6 2.4-1h-80.5c-0.5 0-2.4 0.2-2.4 1V491c0 0.2 0.4 0.2 0.5 0.2h72.2c0.4 0 1.6-0.2 2 0 0.7 0.4-0.3-0.6-0.1 0.4 0.8 3.9 0 8.8 0 12.7v10.4c0.8-0.3 1.6-0.6 2.4-1H532c-0.5 0-2.4 0.2-2.4 1v70.1c0 0.2 0.4 0.2 0.5 0.2h81.1c0.7 0 3.6-0.5 4.1 0-0.7-0.6-0.5 3-0.5 3.5v20.1c0 0.4 2.9 0 2.9-0.8V584c0-0.2-0.4-0.2-0.5-0.2H534.9c-0.5 0-2.3 0.3-2.7 0 0.6 0.5 0.3-0.6 0.4-1.2 0.6-4.4 0-9.4 0-13.9V547v-33.1c-0.8 0.3-1.6 0.6-2.4 1h74.5c0.5 0 2.4-0.2 2.4-1v-23.8c0-0.2-0.4-0.2-0.5-0.2h-62.1c-3.7 0-7.5 0.2-11.2 0-1.2-0.1-0.9-0.1-0.7 0.1-0.3-0.6 0-2.3 0-3v-33.8-29.9c-0.8 0.3-1.6 0.6-2.4 1h80.5c0.5 0 2.4-0.2 2.4-1v-24c0-0.2-0.4-0.2-0.5-0.2H505.2c-0.5 0-2.4 0.2-2.4 1v208.4c0 0.2 0.4 0.2 0.5 0.2h112.1c0.4 0.2 3.1-1 1.7-1z" fill="#ffffff" /><path d="M762.9 423.8h-80.5v69.7H757v23.7h-74.5v91.1h-26.9V399.8H763v24z" fill="#ffffff" /><path d="M763.1 422.7h-80.5c-0.6 0-1.6 0.5-1.6 1.2v69.7c0 0.8 0.7 1 1.4 1h74.5c-0.5-0.3-0.9-0.7-1.4-1v23.7c0.5-0.4 1.1-0.8 1.6-1.2h-74.5c-0.6 0-1.6 0.5-1.6 1.2v91.1c0.5-0.4 1.1-0.8 1.6-1.2h-26.9c0.5 0.3 0.9 0.7 1.4 1v-70.3-112.2-25.9c-0.5 0.4-1.1 0.8-1.6 1.2H762.9c-0.5-0.3-0.9-0.7-1.4-1v24c0 1.6 2.9 1.2 2.9-0.2v-24c0-0.8-0.7-1-1.4-1H655.6c-0.6 0-1.6 0.5-1.6 1.2v208.4c0 0.8 0.7 1 1.4 1h26.9c0.6 0 1.6-0.5 1.6-1.2v-79.6-11.5c-0.5 0.4-1.1 0.8-1.6 1.2h74.5c0.6 0 1.6-0.5 1.6-1.2v-23.7c0-0.8-0.7-1-1.4-1h-74.5c0.5 0.3 0.9 0.7 1.4 1v-69.7c-0.5 0.4-1.1 0.8-1.6 1.2h80.5c1.7 0 2.2-2.2 0.3-2.2z" fill="#ffffff" /><path d="M911.9 608.3H802V399.8h26.9v184.6h83v23.9z" fill="#ffffff" /><path d="M912.5 607.6H809.4c-1.3 0-5.7 0.8-6.8 0 1.4 0.9 0.8-1.7 0.8-2.6V454.1v-54.6c-0.7 0.4-1.4 0.7-2 1.1h22.9c0.9 0 2.8-0.4 3.7 0 0.5 0.2-0.6-0.8-0.6 0V584.9c0 0.3 0.7 0.3 0.9 0.3h81.9c0.9 0 0.9 0.3 0.7-0.1-0.3-0.6-0.4 3.5-0.4 3.9v19.7c0 0.7 2.9 0.2 2.9-0.8v-23.8c0-0.3-0.7-0.3-0.9-0.3h-57.1c-8.3 0-16.7 0.1-25.1 0-1.5 0-0.1 0 0 0.3-0.1-0.3-0.1-0.9 0-1.1 0.5-1.7 0-4.3 0-6.1V443.6v-44.1c0-0.3-0.7-0.3-0.9-0.3h-26.9c-0.6 0-2 0.3-2 1.1v208.4c0 0.3 0.7 0.3 0.9 0.3h110c0.8 0 3-1.4 1.1-1.4z" fill="#ffffff" /></svg>