<?xml version="1.0" standalone="no"?><!DOCTYPE svg PUBLIC "-//W3C//DTD SVG 1.1//EN" "http://www.w3.org/Graphics/SVG/1.1/DTD/svg11.dtd"><svg class="icon" width="200px" height="200.00px" viewBox="0 0 1024 1024" version="1.1" xmlns="http://www.w3.org/2000/svg"><path d="M531.692308 748.307692c-11.815385 11.815385-27.569231 11.815385-39.384616 0l-263.876923-263.876923c-11.815385-11.815385-11.815385-27.569231 0-39.384615 11.815385-11.815385 27.569231-11.815385 39.384616 0l263.876923 263.876923c11.815385 11.815385 11.815385 27.569231 0 39.384615z" fill="#3F3F3F" /><path d="M795.569231 445.046154c11.815385 11.815385 11.815385 27.569231 0 39.384615L531.692308 748.307692c-11.815385 11.815385-27.569231 11.815385-39.384616 0-11.815385-11.815385-11.815385-27.569231 0-39.384615l263.876923-263.876923c11.815385-11.815385 27.569231-11.815385 39.384616 0z" fill="#3F3F3F" /><path d="M539.569231 712.861538c0 15.753846-11.815385 27.569231-27.569231 27.569231s-27.569231-11.815385-27.569231-27.569231V86.646154c0-15.753846 11.815385-27.569231 27.569231-27.569231s27.569231 11.815385 27.569231 27.569231v626.215384z" fill="#3F3F3F" /><path d="M992.492308 567.138462c-15.753846 0-27.569231 11.815385-27.569231 27.56923V866.461538c0 23.630769-19.692308 43.323077-43.323077 43.323077H98.461538c-23.630769 0-43.323077-19.692308-43.323076-43.323077v-271.753846c0-15.753846-11.815385-27.569231-27.569231-27.56923-15.753846 0-27.569231 11.815385-27.569231 31.507692v283.569231c0 47.261538 39.384615 86.646154 86.646154 86.646153h850.707692c47.261538 0 86.646154-39.384615 86.646154-86.646153v-283.569231c0-19.692308-15.753846-31.507692-31.507692-31.507692z" fill="#3F3F3F" /></svg>