<?xml version="1.0" standalone="no"?><!DOCTYPE svg PUBLIC "-//W3C//DTD SVG 1.1//EN" "http://www.w3.org/Graphics/SVG/1.1/DTD/svg11.dtd"><svg class="icon" width="200px" height="200.00px" viewBox="0 0 1024 1024" version="1.1" xmlns="http://www.w3.org/2000/svg"><path d="M200.677509 736.311789 200.677509 357.868597 21.567201 357.868597 21.567201 453.976492 91.464131 453.976492 91.464131 819.23336 25.935696 868.985484 52.147684 965.093379 283.678898 785.984095 261.836427 689.8762Z"  /><path d="M279.310404 222.444255 117.675096 56.440453 73.990155 152.548348 235.625462 318.55215Z"  /><path d="M362.311793 965.093379l615.96177 0L978.273563 654.928247 362.311793 654.928247 362.311793 965.093379zM471.52517 751.036141l401.903509 0 0 117.950366-401.903509 0L471.52517 751.036141z"  /><path d="M930.220127 480.187457l21.842471-214.057237L674.636101 266.13022l22.61302-87.370907 281.024441 0L978.273563 82.651418 353.574804 82.651418l0 96.107895L588.036767 178.759313l-22.61302 87.370907L375.418298 266.13022l0 96.107895 165.129898 0L510.019903 480.187457 336.100828 480.187457l0 100.476389 664.015206 0 0-100.476389L930.220127 480.187457zM825.375244 480.187457 619.23328 480.187457l30.528294-117.950366L838.480726 362.237091 825.375244 480.187457z"  /></svg>