<?xml version="1.0" standalone="no"?><!DOCTYPE svg PUBLIC "-//W3C//DTD SVG 1.1//EN" "http://www.w3.org/Graphics/SVG/1.1/DTD/svg11.dtd"><svg class="icon" width="200px" height="200.00px" viewBox="0 0 1024 1024" version="1.1" xmlns="http://www.w3.org/2000/svg"><path d="M511.49858 981.710848c-63.444984 0-125.000945-12.4301-182.962032-36.945447-55.972802-23.675212-106.237603-57.56302-149.397588-100.723006s-77.047794-93.423763-100.721982-149.396565C53.901631 636.685767 41.47153 575.128783 41.47153 511.684822S53.901631 386.682853 78.416977 328.72279c23.674189-55.972802 57.561997-106.237603 100.721982-149.397588S272.562722 102.278431 328.536548 78.603219c57.961086-24.515347 119.517047-36.945447 182.962032-36.945447 63.443961 0 125.000945 12.4301 182.962032 36.945447 55.972802 23.674189 106.23658 57.561997 149.396565 100.721982s77.047794 93.423763 100.723006 149.397588c24.514323 57.960063 36.945447 119.517047 36.945447 182.961008s-12.4301 125.000945-36.945447 182.962032c-23.675212 55.972802-57.56302 106.23658-100.723006 149.396565s-93.423763 77.047794-149.396565 100.723006C636.499525 969.279724 574.942541 981.710848 511.49858 981.710848zM511.49858 82.59002c-236.603743 0-429.094802 192.491059-429.094802 429.093778 0 236.603743 192.491059 429.093778 429.094802 429.093778s429.093778-192.490036 429.093778-429.093778C940.592358 275.081079 748.101299 82.59002 511.49858 82.59002z"  /><path d="M310.661436 369.774765l404.90282 0c20.4958 0 30.78105 8.773827 30.78105 26.25906l0 161.596422c0 18.87386-10.285251 28.279067-30.78105 28.279067L310.661436 585.909313c-20.533662 0-30.782074-9.404184-30.782074-28.279067L279.879362 396.033825C279.879362 378.548592 290.127773 369.774765 310.661436 369.774765zM310.661436 412.192853l0 129.276319c0 10.794857 6.28924 16.160051 18.942421 16.160051l367.016955 0c12.615319 0 18.943444-5.365194 18.943444-16.160051L715.564255 412.192853c0-10.762111-6.328126-16.160051-18.943444-16.160051L329.603857 396.032802C316.950675 396.033825 310.661436 401.430742 310.661436 412.192853zM492.984924 276.856515c0-8.080026 5.106298-12.120039 15.391549-12.120039 10.249435 0 15.391549 4.040013 15.391549 12.120039l0 468.629213c0 8.080026-5.142114 12.120039-15.391549 12.120039-10.285251 0-15.391549-4.040013-15.391549-12.120039L492.984924 276.856515z"  /><path d="M508.376473 770.397095c-20.779256 0-28.182876-12.868075-28.182876-24.911366L480.193597 598.700641 310.661436 598.700641c-27.691689 0-43.573401-14.969946-43.573401-41.070394L267.088034 396.033825c0-24.817222 15.881712-39.050388 43.573401-39.050388l169.532161 0 0-80.126922c0-12.043291 7.40362-24.911366 28.182876-24.911366 20.779256 0 28.182876 12.868075 28.182876 24.911366l0 80.126922 179.004907 0c27.691689 0 43.572378 14.233166 43.572378 39.050388l0 161.596422c0 26.100448-15.881712 41.070394-43.572378 41.070394L536.559349 598.700641l0 146.785088C536.559349 757.529019 529.154705 770.397095 508.376473 770.397095zM505.776252 744.651734c0.611937 0.090051 1.461281 0.162706 2.600221 0.162706 1.140986 0 1.990331-0.073678 2.600221-0.164752L510.976694 598.700641l-5.200442 0L505.776252 744.651734zM536.559349 573.117986l179.004907 0c15.122419 0 17.989723-5.442966 17.989723-15.487739L733.553978 396.033825c0-6.000668 0-13.467733-17.989723-13.467733L536.559349 382.566092l0 0.676405 160.061462 0c23.397896 0 31.734772 14.954597 31.734772 28.951379l0 129.276319c0 13.996782-8.335852 28.951379-31.734772 28.951379L536.559349 570.421574 536.559349 573.117986zM505.776252 573.117986l5.200442 0 0-2.696412-5.200442 0L505.776252 573.117986zM310.661436 382.566092c-17.990746 0-17.990746 7.467065-17.990746 13.467733l0 161.596422c0 10.271948 2.78237 15.487739 17.990746 15.487739l169.532161 0 0-2.696412-150.58974 0c-23.397896 0-31.733749-14.954597-31.733749-28.951379L297.870108 412.192853c0-13.995759 8.335852-28.951379 31.733749-28.951379l150.58974 0 0-0.676405L310.661436 382.565069zM536.559349 544.838919l160.061462 0c3.984754 0 5.507434-0.73985 5.837962-0.934279 0.089028-0.223081 0.314155-0.939395 0.314155-2.434445L702.772928 412.192853c0-1.500167-0.229221-2.210341-0.316202-2.426259-0.318248-0.190335-1.830695-0.942465-5.835915-0.942465L536.559349 408.824129 536.559349 544.838919zM505.776252 544.838919l5.200442 0L510.976694 408.825153l-5.200442 0L505.776252 544.838919zM323.764871 543.91385c0.342808 0.197498 1.87572 0.925069 5.840008 0.925069l150.58974 0L480.19462 408.825153l-150.58974 0c-3.983731 0-5.506411 0.73985-5.837962 0.934279-0.088004 0.224104-0.314155 0.939395-0.314155 2.434445l0 129.276319C323.452763 542.960129 323.67482 543.68156 323.764871 543.91385zM505.776252 383.242498l5.200442 0 0-0.676405-5.200442 0L505.776252 383.242498zM505.776252 356.983437l5.200442 0 0-79.290881c-0.60989-0.090051-1.459235-0.164752-2.600221-0.164752-1.13894 0-1.988284 0.073678-2.600221 0.162706L505.776252 356.983437z"  /></svg>